<svg width="24" height="24" viewBox="0 0 24 24" fill="none" xmlns="http://www.w3.org/2000/svg" preserveAspectRatio="xMinYMid meet">
<path fill-rule="evenodd" clip-rule="evenodd" d="M13.2 2.9H7.8C6.97 2.9 6.3 3.57 6.3 4.4V19.4C6.3 20.23 6.97 20.9 7.8 20.9H16.8C17.63 20.9 18.3 20.23 18.3 19.4V8.9C18.3 8.23 18.04 7.59 17.57 7.12L14.76 4.3C14.29 3.83 13.65 3.56 12.98 3.56H12.8V6.4C12.8 7.23 13.47 7.9 14.3 7.9H17.14L13.2 2.9ZM9.2 11.1C9.2 10.82 9.42 10.6 9.7 10.6H14.9C15.18 10.6 15.4 10.82 15.4 11.1C15.4 11.38 15.18 11.6 14.9 11.6H9.7C9.42 11.6 9.2 11.38 9.2 11.1ZM9.2 14.1C9.2 13.82 9.42 13.6 9.7 13.6H14.9C15.18 13.6 15.4 13.82 15.4 14.1C15.4 14.38 15.18 14.6 14.9 14.6H9.7C9.42 14.6 9.2 14.38 9.2 14.1ZM9.2 17.1C9.2 16.82 9.42 16.6 9.7 16.6H12.9C13.18 16.6 13.4 16.82 13.4 17.1C13.4 17.38 13.18 17.6 12.9 17.6H9.7C9.42 17.6 9.2 17.38 9.2 17.1Z" fill="#212529"/>
</svg>
